<svg width="77" height="22" viewBox="0 0 77 22" fill="none" xmlns="http://www.w3.org/2000/svg">
<path d="M7.87507 18.875C7.58721 18.875 7.29921 18.7651 7.07983 18.5454L0.329834 11.7954C-0.109619 11.356 -0.109619 10.644 0.329834 10.2046L7.07983 3.45459C7.51928 3.01514 8.2312 3.01514 8.67065 3.45459C9.1101 3.89404 9.1101 4.60596 8.67065 5.04541L2.71589 11L8.67135 16.9555C9.11081 17.3949 9.11081 18.1068 8.67135 18.5463C8.45163 18.766 8.16335 18.875 7.87507 18.875Z" fill="#505050"/>
<path d="M27.9382 9.49219H25.1385C25.0874 9.12997 24.983 8.80824 24.8253 8.52699C24.6676 8.24148 24.4652 7.99858 24.218 7.7983C23.9709 7.59801 23.6854 7.4446 23.3615 7.33807C23.0419 7.23153 22.6946 7.17827 22.3196 7.17827C21.642 7.17827 21.0518 7.34659 20.549 7.68324C20.0462 8.01562 19.6563 8.50142 19.3793 9.14062C19.1023 9.77557 18.9638 10.5469 18.9638 11.4545C18.9638 12.3878 19.1023 13.1719 19.3793 13.8068C19.6605 14.4418 20.0526 14.9212 20.5554 15.245C21.0582 15.5689 21.6399 15.7308 22.3004 15.7308C22.6712 15.7308 23.0142 15.6818 23.3295 15.5838C23.6491 15.4858 23.9325 15.343 24.1797 15.1555C24.4268 14.9638 24.6314 14.7315 24.7933 14.4588C24.9595 14.1861 25.0746 13.875 25.1385 13.5256L27.9382 13.5384C27.8658 14.1392 27.6847 14.7188 27.3949 15.277C27.1094 15.831 26.7237 16.3274 26.2379 16.7663C25.7564 17.201 25.1811 17.5462 24.5121 17.8018C23.8473 18.0533 23.0952 18.179 22.2557 18.179C21.0881 18.179 20.044 17.9148 19.1236 17.3864C18.2074 16.858 17.483 16.093 16.9503 15.0916C16.4219 14.0902 16.1577 12.8778 16.1577 11.4545C16.1577 10.027 16.4261 8.8125 16.9631 7.81108C17.5 6.80966 18.2287 6.04687 19.1491 5.52273C20.0696 4.99432 21.1051 4.73011 22.2557 4.73011C23.0142 4.73011 23.7173 4.83665 24.3651 5.04972C25.017 5.26278 25.5945 5.57386 26.0973 5.98295C26.6001 6.38778 27.0092 6.88423 27.3246 7.4723C27.6442 8.06037 27.8487 8.73366 27.9382 9.49219ZM32.5815 18.1854C31.9551 18.1854 31.3969 18.0767 30.9068 17.8594C30.4167 17.6378 30.029 17.3118 29.7435 16.8814C29.4622 16.4467 29.3216 15.9055 29.3216 15.2578C29.3216 14.7124 29.4217 14.2543 29.622 13.8835C29.8223 13.5128 30.095 13.2145 30.4402 12.9886C30.7854 12.7628 31.1774 12.5923 31.6163 12.4773C32.0595 12.3622 32.524 12.2812 33.0098 12.2344C33.5808 12.1747 34.041 12.1193 34.3905 12.0682C34.7399 12.0128 34.9935 11.9318 35.1511 11.8253C35.3088 11.7187 35.3876 11.5611 35.3876 11.3523V11.3139C35.3876 10.9091 35.2598 10.5959 35.0041 10.3743C34.7527 10.1527 34.3947 10.0419 33.9302 10.0419C33.4402 10.0419 33.0503 10.1506 32.7605 10.3679C32.4707 10.581 32.279 10.8494 32.1852 11.1733L29.6667 10.9688C29.7946 10.3722 30.046 9.85653 30.421 9.42188C30.796 8.98295 31.2797 8.64631 31.872 8.41193C32.4686 8.1733 33.1589 8.05398 33.943 8.05398C34.4885 8.05398 35.0105 8.1179 35.5091 8.24574C36.0119 8.37358 36.4572 8.57173 36.845 8.8402C37.2371 9.10866 37.546 9.45384 37.7719 9.87571C37.9977 10.2933 38.1106 10.794 38.1106 11.3778V18H35.5283V16.6385H35.4515C35.2939 16.9453 35.0829 17.2159 34.8187 17.4503C34.5545 17.6804 34.2371 17.8615 33.8663 17.9936C33.4956 18.1214 33.0673 18.1854 32.5815 18.1854ZM33.3613 16.3061C33.7619 16.3061 34.1156 16.2273 34.4224 16.0696C34.7292 15.9077 34.97 15.6903 35.1447 15.4176C35.3194 15.1449 35.4068 14.8359 35.4068 14.4908V13.4489C35.3216 13.5043 35.2044 13.5554 35.0552 13.6023C34.9104 13.6449 34.7463 13.6854 34.5631 13.7237C34.3798 13.7578 34.1966 13.7898 34.0133 13.8196C33.8301 13.8452 33.6639 13.8686 33.5148 13.8899C33.1952 13.9368 32.916 14.0114 32.6774 14.1136C32.4388 14.2159 32.2534 14.3544 32.1213 14.5291C31.9892 14.6996 31.9231 14.9126 31.9231 15.1683C31.9231 15.5391 32.0574 15.8224 32.3258 16.0185C32.5986 16.2102 32.9437 16.3061 33.3613 16.3061ZM42.8562 12.3239V18H40.1332V8.18182H42.7284V9.91406H42.8434C43.0608 9.34304 43.4251 8.89133 43.9365 8.55895C44.4478 8.2223 45.0679 8.05398 45.7966 8.05398C46.4784 8.05398 47.0728 8.20312 47.5799 8.50142C48.087 8.79972 48.4812 9.22585 48.7625 9.77983C49.0437 10.3295 49.1843 10.9858 49.1843 11.7486V18H46.4613V12.2344C46.4656 11.6335 46.3122 11.1648 46.0011 10.8281C45.69 10.4872 45.2618 10.3168 44.7163 10.3168C44.3498 10.3168 44.026 10.3956 43.7447 10.5533C43.4677 10.7109 43.2504 10.9411 43.0927 11.2436C42.9393 11.5419 42.8605 11.902 42.8562 12.3239ZM55.6766 18.1918C54.6709 18.1918 53.8058 17.9787 53.0814 17.5526C52.3612 17.1222 51.8072 16.5256 51.4195 15.7628C51.0359 15 50.8442 14.1222 50.8442 13.1293C50.8442 12.1236 51.0381 11.2415 51.4258 10.483C51.8179 9.72017 52.374 9.12571 53.0942 8.69957C53.8143 8.26918 54.6709 8.05398 55.6638 8.05398C56.5203 8.05398 57.2703 8.20952 57.9138 8.5206C58.5572 8.83168 59.0665 9.26847 59.4415 9.83097C59.8165 10.3935 60.0231 11.054 60.0615 11.8125H57.4919C57.4195 11.3224 57.2277 10.9283 56.9166 10.63C56.6098 10.3274 56.2071 10.1761 55.7085 10.1761C55.2866 10.1761 54.918 10.2912 54.6027 10.5213C54.2916 10.7472 54.0487 11.0774 53.874 11.5121C53.6993 11.9467 53.6119 12.473 53.6119 13.0909C53.6119 13.7173 53.6972 14.25 53.8676 14.6889C54.0423 15.1278 54.2874 15.4624 54.6027 15.6925C54.918 15.9226 55.2866 16.0376 55.7085 16.0376C56.0196 16.0376 56.2987 15.9737 56.5459 15.8459C56.7973 15.718 57.004 15.5327 57.1659 15.2898C57.3321 15.0426 57.4408 14.7464 57.4919 14.4013H60.0615C60.0189 15.1513 59.8143 15.8118 59.4479 16.3828C59.0856 16.9496 58.5849 17.3928 57.9457 17.7124C57.3065 18.032 56.5501 18.1918 55.6766 18.1918ZM66.1894 18.1918C65.1794 18.1918 64.3101 17.9872 63.5814 17.5781C62.857 17.1648 62.2987 16.581 61.9067 15.8267C61.5146 15.0682 61.3186 14.1712 61.3186 13.1357C61.3186 12.1257 61.5146 11.2393 61.9067 10.4766C62.2987 9.71378 62.8506 9.11932 63.5622 8.69318C64.2781 8.26705 65.1176 8.05398 66.0807 8.05398C66.7284 8.05398 67.3314 8.15838 67.8896 8.36719C68.4521 8.57173 68.9422 8.88068 69.3598 9.29403C69.7817 9.70739 70.1098 10.2273 70.3442 10.8537C70.5786 11.4759 70.6958 12.2045 70.6958 13.0398V13.7876H62.4053V12.1001H68.1325C68.1325 11.7081 68.0473 11.3608 67.8769 11.0582C67.7064 10.7557 67.4699 10.5192 67.1673 10.3487C66.869 10.174 66.5217 10.0866 66.1254 10.0866C65.7121 10.0866 65.3456 10.1825 65.026 10.3743C64.7107 10.5618 64.4635 10.8153 64.2845 11.1349C64.1056 11.4503 64.0139 11.8018 64.0097 12.1896V13.794C64.0097 14.2798 64.0992 14.6996 64.2781 15.0533C64.4614 15.407 64.7192 15.6797 65.0516 15.8714C65.384 16.0632 65.7781 16.1591 66.2341 16.1591C66.5367 16.1591 66.8137 16.1165 67.0651 16.0312C67.3165 15.946 67.5317 15.8182 67.7107 15.6477C67.8896 15.4773 68.026 15.2685 68.1198 15.0213L70.6382 15.1875C70.5104 15.7926 70.2483 16.321 69.852 16.7727C69.46 17.2202 68.9529 17.5696 68.3307 17.821C67.7128 18.0682 66.999 18.1918 66.1894 18.1918ZM75.1058 4.90909V18H72.3827V4.90909H75.1058Z" fill="#505050"/>
</svg>
