<svg width="25" height="25" viewBox="0 0 25 25" fill="none" xmlns="http://www.w3.org/2000/svg">
<path d="M0 4C0 1.79086 1.79086 0 4 0H21C23.2091 0 25 1.79086 25 4V21C25 23.2091 23.2091 25 21 25H4C1.79086 25 0 23.2091 0 21V4Z" fill="#2FE6FF"/>
<path d="M19 9C19 9.25587 18.9023 9.51187 18.707 9.70687L10.707 17.7069C10.5125 17.9031 10.2562 18 10 18C9.74375 18 9.48813 17.9023 9.29313 17.707L5.29313 13.707C5.09781 13.5125 5 13.2562 5 13C5 12.4288 5.46719 12 6 12C6.25587 12 6.51188 12.0977 6.70688 12.293L10 15.5875L17.2937 8.29375C17.4875 8.09781 17.7437 8 18 8C18.5344 8 19 8.42813 19 9Z" fill="white"/>
</svg>
