<svg width="45" height="15" viewBox="0 0 45 15" fill="none" xmlns="http://www.w3.org/2000/svg">
<path d="M4.95857 14H0.317941V0.909091H4.99692C6.31368 0.909091 7.4472 1.17116 8.39749 1.69531C9.34777 2.2152 10.0786 2.96307 10.59 3.93892C11.1056 4.91477 11.3634 6.08239 11.3634 7.44176C11.3634 8.8054 11.1056 9.97727 10.59 10.9574C10.0786 11.9375 9.34351 12.6896 8.3847 13.2138C7.43016 13.7379 6.28811 14 4.95857 14ZM3.0857 11.6286H4.84351C5.66169 11.6286 6.3499 11.4837 6.90814 11.1939C7.47064 10.8999 7.89252 10.446 8.17377 9.83239C8.45928 9.21449 8.60203 8.41761 8.60203 7.44176C8.60203 6.47443 8.45928 5.68395 8.17377 5.07031C7.89252 4.45668 7.47277 4.00497 6.91453 3.7152C6.35629 3.42543 5.66808 3.28054 4.8499 3.28054H3.0857V11.6286ZM17.7086 14.1918C16.7157 14.1918 15.857 13.9808 15.1326 13.5589C14.4124 13.1328 13.8563 12.5405 13.4643 11.782C13.0722 11.0192 12.8762 10.1349 12.8762 9.12926C12.8762 8.11506 13.0722 7.22869 13.4643 6.47017C13.8563 5.70739 14.4124 5.11506 15.1326 4.69318C15.857 4.26705 16.7157 4.05398 17.7086 4.05398C18.7015 4.05398 19.558 4.26705 20.2782 4.69318C21.0026 5.11506 21.5609 5.70739 21.9529 6.47017C22.345 7.22869 22.541 8.11506 22.541 9.12926C22.541 10.1349 22.345 11.0192 21.9529 11.782C21.5609 12.5405 21.0026 13.1328 20.2782 13.5589C19.558 13.9808 18.7015 14.1918 17.7086 14.1918ZM17.7214 12.0824C18.1731 12.0824 18.5502 11.9545 18.8528 11.6989C19.1553 11.4389 19.3833 11.0852 19.5367 10.6378C19.6944 10.1903 19.7732 9.68111 19.7732 9.11009C19.7732 8.53906 19.6944 8.02983 19.5367 7.58239C19.3833 7.13494 19.1553 6.78125 18.8528 6.52131C18.5502 6.26136 18.1731 6.13139 17.7214 6.13139C17.2654 6.13139 16.8819 6.26136 16.5708 6.52131C16.264 6.78125 16.0317 7.13494 15.8741 7.58239C15.7207 8.02983 15.644 8.53906 15.644 9.11009C15.644 9.68111 15.7207 10.1903 15.8741 10.6378C16.0317 11.0852 16.264 11.4389 16.5708 11.6989C16.8819 11.9545 17.2654 12.0824 17.7214 12.0824ZM26.9446 8.32386V14H24.2216V4.18182H26.8167V5.91406H26.9318C27.1491 5.34304 27.5135 4.89133 28.0248 4.55895C28.5362 4.2223 29.1562 4.05398 29.8849 4.05398C30.5667 4.05398 31.1612 4.20312 31.6683 4.50142C32.1754 4.79972 32.5696 5.22585 32.8508 5.77983C33.1321 6.32955 33.2727 6.9858 33.2727 7.74858V14H30.5497V8.23438C30.554 7.63352 30.4005 7.16477 30.0895 6.82812C29.7784 6.48722 29.3501 6.31676 28.8047 6.31676C28.4382 6.31676 28.1143 6.3956 27.8331 6.55327C27.5561 6.71094 27.3388 6.94105 27.1811 7.24361C27.0277 7.5419 26.9488 7.90199 26.9446 8.32386ZM39.8033 14.1918C38.7933 14.1918 37.924 13.9872 37.1953 13.5781C36.4709 13.1648 35.9126 12.581 35.5206 11.8267C35.1286 11.0682 34.9325 10.1712 34.9325 9.13565C34.9325 8.12571 35.1286 7.23935 35.5206 6.47656C35.9126 5.71378 36.4645 5.11932 37.1761 4.69318C37.892 4.26705 38.7315 4.05398 39.6946 4.05398C40.3423 4.05398 40.9453 4.15838 41.5036 4.36719C42.0661 4.57173 42.5561 4.88068 42.9737 5.29403C43.3956 5.70739 43.7237 6.22727 43.9581 6.85369C44.1925 7.47585 44.3097 8.20455 44.3097 9.03977V9.78764H36.0192V8.10014H41.7464C41.7464 7.7081 41.6612 7.3608 41.4908 7.05824C41.3203 6.75568 41.0838 6.51918 40.7812 6.34872C40.483 6.17401 40.1357 6.08665 39.7393 6.08665C39.326 6.08665 38.9595 6.18253 38.6399 6.37429C38.3246 6.56179 38.0774 6.81534 37.8984 7.13494C37.7195 7.45028 37.6278 7.80185 37.6236 8.18963V9.79403C37.6236 10.2798 37.7131 10.6996 37.892 11.0533C38.0753 11.407 38.3331 11.6797 38.6655 11.8714C38.9979 12.0632 39.392 12.1591 39.848 12.1591C40.1506 12.1591 40.4276 12.1165 40.679 12.0312C40.9304 11.946 41.1456 11.8182 41.3246 11.6477C41.5036 11.4773 41.6399 11.2685 41.7337 11.0213L44.2521 11.1875C44.1243 11.7926 43.8622 12.321 43.4659 12.7727C43.0739 13.2202 42.5668 13.5696 41.9446 13.821C41.3267 14.0682 40.6129 14.1918 39.8033 14.1918Z" fill="#505050"/>
</svg>
