<svg width="115" height="54" viewBox="0 0 115 54" fill="none" xmlns="http://www.w3.org/2000/svg">
<path d="M0 6C0 2.68629 2.68629 0 6 0H109C112.314 0 115 2.68629 115 6V48C115 51.3137 112.314 54 109 54H6C2.68629 54 0 51.3137 0 48V6Z" fill="white"/>
<path d="M18.0591 29.3731L28.7512 18.6793C29.6301 17.8004 31.0574 17.8004 31.9363 18.6793L33.3215 20.0655C33.4305 20.1752 33.5254 20.2936 33.6098 20.4184C34.1863 21.2917 34.0914 22.479 33.3215 23.2489L22.6269 33.9399C22.5812 33.9856 22.5355 33.9997 22.4863 34.0735C22.1488 34.3723 21.748 34.5622 21.3121 34.7204L17.0818 35.9649C16.7857 36.0528 16.4655 35.9719 16.2471 35.7223C16.0288 35.536 15.9472 35.2161 16.0343 34.9172L17.2786 30.6879C17.4249 30.1922 17.6931 29.7387 18.0591 29.3731ZM18.8976 31.1625L18.0897 33.9118L20.8375 33.1032C21.0309 33.0364 21.2664 32.9133 21.4352 32.7481L29.4648 24.7149L27.2535 22.5036L19.2523 30.5649C19.2316 30.586 19.2115 30.6071 19.1922 30.6317C19.0565 30.7829 18.9556 30.9657 18.8976 31.1625Z" fill="#242424"/>
<path d="M43.2912 34V20.9091H51.8054V22.897H45.6626V26.451H51.3643V28.4389H45.6626V32.0121H51.8565V34H43.2912ZM57.676 34.1726C56.9047 34.1726 56.2143 33.9744 55.605 33.5781C54.9956 33.1818 54.514 32.6065 54.1604 31.8523C53.8067 31.098 53.6298 30.1818 53.6298 29.1037C53.6298 28.0128 53.8088 27.0923 54.1667 26.3423C54.529 25.5881 55.0169 25.0192 55.6305 24.6357C56.2442 24.2479 56.9281 24.054 57.6824 24.054C58.2577 24.054 58.7307 24.152 59.1014 24.348C59.4721 24.5398 59.7662 24.772 59.9835 25.0447C60.2008 25.3132 60.3692 25.5668 60.4885 25.8054H60.5844V20.9091H62.9047V34H60.6291V32.4531H60.4885C60.3692 32.6918 60.1966 32.9453 59.9707 33.2138C59.7449 33.478 59.4466 33.7038 59.0758 33.8913C58.7051 34.0788 58.2385 34.1726 57.676 34.1726ZM58.3216 32.2741C58.8116 32.2741 59.2292 32.142 59.5744 31.8778C59.9196 31.6094 60.1817 31.2365 60.3606 30.7592C60.5396 30.282 60.6291 29.7259 60.6291 29.0909C60.6291 28.456 60.5396 27.9041 60.3606 27.4354C60.1859 26.9666 59.926 26.6023 59.5808 26.3423C59.2399 26.0824 58.8202 25.9524 58.3216 25.9524C57.806 25.9524 57.3756 26.0866 57.0304 26.3551C56.6852 26.6236 56.4253 26.9943 56.2506 27.4673C56.0758 27.9403 55.9885 28.4815 55.9885 29.0909C55.9885 29.7045 56.0758 30.2521 56.2506 30.7337C56.4295 31.2109 56.6916 31.5881 57.0368 31.8651C57.3862 32.1378 57.8145 32.2741 58.3216 32.2741ZM65.2804 34V24.1818H67.5943V34H65.2804ZM66.4438 22.7884C66.0773 22.7884 65.7619 22.6669 65.4977 22.424C65.2335 22.1768 65.1014 21.8807 65.1014 21.5355C65.1014 21.1861 65.2335 20.8899 65.4977 20.647C65.7619 20.3999 66.0773 20.2763 66.4438 20.2763C66.8145 20.2763 67.1298 20.3999 67.3898 20.647C67.654 20.8899 67.7861 21.1861 67.7861 21.5355C67.7861 21.8807 67.654 22.1768 67.3898 22.424C67.1298 22.6669 66.8145 22.7884 66.4438 22.7884ZM74.7865 24.1818V25.9716H69.1423V24.1818H74.7865ZM70.5358 21.8295H72.8497V31.0469C72.8497 31.358 72.8965 31.5966 72.9903 31.7628C73.0883 31.9247 73.2162 32.0355 73.3738 32.0952C73.5315 32.1548 73.7062 32.1847 73.898 32.1847C74.0429 32.1847 74.175 32.174 74.2943 32.1527C74.4179 32.1314 74.5116 32.1122 74.5755 32.0952L74.9654 33.9041C74.8419 33.9467 74.665 33.9936 74.4349 34.0447C74.209 34.0959 73.9321 34.1257 73.6039 34.1342C73.0244 34.1513 72.5024 34.0639 72.0379 33.8722C71.5734 33.6761 71.2048 33.3736 70.9321 32.9645C70.6636 32.5554 70.5315 32.044 70.5358 31.4304V21.8295Z" fill="#242424"/>
</svg>
