<svg width="32" height="32" viewBox="0 0 32 32" fill="none" xmlns="http://www.w3.org/2000/svg">
<g clip-path="url(#clip0_2_859)">
<path d="M20.375 16C20.375 14.9648 21.2148 14.125 22.25 14.125C23.2852 14.125 24.125 14.9648 24.125 16C24.125 17.0352 23.2852 17.875 22.25 17.875C21.2148 17.875 20.375 17.0352 20.375 16ZM14.125 16C14.125 14.9648 14.9648 14.125 16 14.125C17.0352 14.125 17.875 14.9648 17.875 16C17.875 17.0352 17.0352 17.875 16 17.875C14.9648 17.875 14.125 17.0352 14.125 16ZM11.625 16C11.625 17.0352 10.7855 17.875 9.75 17.875C8.71445 17.875 7.875 17.0352 7.875 16C7.875 14.9648 8.71445 14.125 9.75 14.125C10.7855 14.125 11.625 14.9648 11.625 16Z" fill="#242424"/>
</g>
<defs>
<clipPath id="clip0_2_859">
<rect width="17.5" height="20" fill="white" transform="translate(7.25 6)"/>
</clipPath>
</defs>
</svg>
